solid vcg
  facet normal  0.000000e+00  0.000000e+00 -1.000000e+00
    outer loop
      vertex  -6.600000e-02  8.000000e-03 -3.800000e-02
      vertex   6.600000e-02  8.000000e-03 -3.800000e-02
      vertex  -6.600000e-02  5.000000e-03 -3.800000e-02
    endloop
  endfacet
  facet normal  0.000000e+00  0.000000e+00 -1.000000e+00
    outer loop
      vertex  -6.600000e-02  5.000000e-03 -3.800000e-02
      vertex   6.600000e-02  8.000000e-03 -3.800000e-02
      vertex   6.600000e-02  5.000000e-03 -3.800000e-02
    endloop
  endfacet
  facet normal -0.000000e+00  1.000000e+00  0.000000e+00
    outer loop
      vertex  -6.600000e-02  8.000000e-03 -3.700000e-02
      vertex   6.600000e-02  8.000000e-03 -3.700000e-02
      vertex  -6.600000e-02  8.000000e-03 -3.800000e-02
    endloop
  endfacet
  facet normal  0.000000e+00  1.000000e+00  0.000000e+00
    outer loop
      vertex  -6.600000e-02  8.000000e-03 -3.800000e-02
      vertex   6.600000e-02  8.000000e-03 -3.700000e-02
      vertex   6.600000e-02  8.000000e-03 -3.800000e-02
    endloop
  endfacet
  facet normal  0.000000e+00  0.000000e+00  1.000000e+00
    outer loop
      vertex  -6.600000e-02  5.000000e-03 -3.700000e-02
      vertex   6.600000e-02  5.000000e-03 -3.700000e-02
      vertex  -6.600000e-02  8.000000e-03 -3.700000e-02
    endloop
  endfacet
  facet normal -0.000000e+00  0.000000e+00  1.000000e+00
    outer loop
      vertex  -6.600000e-02  8.000000e-03 -3.700000e-02
      vertex   6.600000e-02  5.000000e-03 -3.700000e-02
      vertex   6.600000e-02  8.000000e-03 -3.700000e-02
    endloop
  endfacet
  facet normal  0.000000e+00  8.715808e-02  9.961944e-01
    outer loop
      vertex   6.600000e-02  5.000000e-03 -3.700000e-02
      vertex  -6.600000e-02  5.000000e-03 -3.700000e-02
      vertex  -6.600000e-02  4.305407e-03 -3.693923e-02
    endloop
  endfacet
  facet normal  0.000000e+00  8.715808e-02  9.961944e-01
    outer loop
      vertex   6.600000e-02  5.000000e-03 -3.700000e-02
      vertex  -6.600000e-02  4.305407e-03 -3.693923e-02
      vertex   6.600000e-02  4.305407e-03 -3.693923e-02
    endloop
  endfacet
  facet normal  0.000000e+00  2.588190e-01  9.659259e-01
    outer loop
      vertex   6.600000e-02  4.305407e-03 -3.693923e-02
      vertex  -6.600000e-02  4.305407e-03 -3.693923e-02
      vertex  -6.600000e-02  3.631919e-03 -3.675877e-02
    endloop
  endfacet
  facet normal  0.000000e+00  2.588190e-01  9.659259e-01
    outer loop
      vertex   6.600000e-02  4.305407e-03 -3.693923e-02
      vertex  -6.600000e-02  3.631919e-03 -3.675877e-02
      vertex   6.600000e-02  3.631919e-03 -3.675877e-02
    endloop
  endfacet
  facet normal  0.000000e+00  4.226204e-01  9.063068e-01
    outer loop
      vertex   6.600000e-02  3.631919e-03 -3.675877e-02
      vertex  -6.600000e-02  3.631919e-03 -3.675877e-02
      vertex  -6.600000e-02  3.000000e-03 -3.646410e-02
    endloop
  endfacet
  facet normal  0.000000e+00  4.226204e-01  9.063068e-01
    outer loop
      vertex   6.600000e-02  3.631919e-03 -3.675877e-02
      vertex  -6.600000e-02  3.000000e-03 -3.646410e-02
      vertex   6.600000e-02  3.000000e-03 -3.646410e-02
    endloop
  endfacet
  facet normal  0.000000e+00  5.735698e-01  8.191567e-01
    outer loop
      vertex   6.600000e-02  3.000000e-03 -3.646410e-02
      vertex  -6.600000e-02  3.000000e-03 -3.646410e-02
      vertex  -6.600000e-02  2.428849e-03 -3.606418e-02
    endloop
  endfacet
  facet normal  0.000000e+00  5.735698e-01  8.191567e-01
    outer loop
      vertex   6.600000e-02  3.000000e-03 -3.646410e-02
      vertex  -6.600000e-02  2.428849e-03 -3.606418e-02
      vertex   6.600000e-02  2.428849e-03 -3.606418e-02
    endloop
  endfacet
  facet normal  0.000000e+00  7.071096e-01  7.071039e-01
    outer loop
      vertex   6.600000e-02  2.428849e-03 -3.606418e-02
      vertex  -6.600000e-02  2.428849e-03 -3.606418e-02
      vertex  -6.600000e-02  1.935822e-03 -3.557115e-02
    endloop
  endfacet
  facet normal  0.000000e+00  7.071096e-01  7.071039e-01
    outer loop
      vertex   6.600000e-02  2.428849e-03 -3.606418e-02
      vertex  -6.600000e-02  1.935822e-03 -3.557115e-02
      vertex   6.600000e-02  1.935822e-03 -3.557115e-02
    endloop
  endfacet
  facet normal  0.000000e+00  8.191519e-01  5.735767e-01
    outer loop
      vertex   6.600000e-02  1.935822e-03 -3.557115e-02
      vertex  -6.600000e-02  1.935822e-03 -3.557115e-02
      vertex  -6.600000e-02  1.535898e-03 -3.500000e-02
    endloop
  endfacet
  facet normal  0.000000e+00  8.191519e-01  5.735767e-01
    outer loop
      vertex   6.600000e-02  1.935822e-03 -3.557115e-02
      vertex  -6.600000e-02  1.535898e-03 -3.500000e-02
      vertex   6.600000e-02  1.535898e-03 -3.500000e-02
    endloop
  endfacet
  facet normal  0.000000e+00  9.063081e-01  4.226175e-01
    outer loop
      vertex   6.600000e-02  1.535898e-03 -3.500000e-02
      vertex  -6.600000e-02  1.535898e-03 -3.500000e-02
      vertex  -6.600000e-02  1.241229e-03 -3.436808e-02
    endloop
  endfacet
  facet normal  0.000000e+00  9.063081e-01  4.226175e-01
    outer loop
      vertex   6.600000e-02  1.535898e-03 -3.500000e-02
      vertex  -6.600000e-02  1.241229e-03 -3.436808e-02
      vertex   6.600000e-02  1.241229e-03 -3.436808e-02
    endloop
  endfacet
  facet normal  0.000000e+00  9.659259e-01  2.588184e-01
    outer loop
      vertex   6.600000e-02  1.241229e-03 -3.436808e-02
      vertex  -6.600000e-02  1.241229e-03 -3.436808e-02
      vertex  -6.600000e-02  1.060769e-03 -3.369459e-02
    endloop
  endfacet
  facet normal  0.000000e+00  9.659259e-01  2.588184e-01
    outer loop
      vertex   6.600000e-02  1.241229e-03 -3.436808e-02
      vertex  -6.600000e-02  1.060769e-03 -3.369459e-02
      vertex   6.600000e-02  1.060769e-03 -3.369459e-02
    endloop
  endfacet
  facet normal  0.000000e+00  9.961947e-01  8.715578e-02
    outer loop
      vertex   6.600000e-02  1.060769e-03 -3.369459e-02
      vertex  -6.600000e-02  1.060769e-03 -3.369459e-02
      vertex  -6.600000e-02  1.000000e-03 -3.300000e-02
    endloop
  endfacet
  facet normal  0.000000e+00  9.961947e-01  8.715578e-02
    outer loop
      vertex   6.600000e-02  1.060769e-03 -3.369459e-02
      vertex  -6.600000e-02  1.000000e-03 -3.300000e-02
      vertex   6.600000e-02  1.000000e-03 -3.300000e-02
    endloop
  endfacet
  facet normal -0.000000e+00  1.000000e+00  0.000000e+00
    outer loop
      vertex  -6.600000e-02  1.000000e-03  3.300000e-02
      vertex   6.600000e-02  1.000000e-03  3.300000e-02
      vertex  -6.600000e-02  1.000000e-03 -3.300000e-02
    endloop
  endfacet
  facet normal  0.000000e+00  1.000000e+00  0.000000e+00
    outer loop
      vertex  -6.600000e-02  1.000000e-03 -3.300000e-02
      vertex   6.600000e-02  1.000000e-03  3.300000e-02
      vertex   6.600000e-02  1.000000e-03 -3.300000e-02
    endloop
  endfacet
  facet normal  0.000000e+00  9.961947e-01 -8.715578e-02
    outer loop
      vertex   6.600000e-02  1.000000e-03  3.300000e-02
      vertex  -6.600000e-02  1.000000e-03  3.300000e-02
      vertex  -6.600000e-02  1.060769e-03  3.369459e-02
    endloop
  endfacet
  facet normal  0.000000e+00  9.961947e-01 -8.715578e-02
    outer loop
      vertex   6.600000e-02  1.000000e-03  3.300000e-02
      vertex  -6.600000e-02  1.060769e-03  3.369459e-02
      vertex   6.600000e-02  1.060769e-03  3.369459e-02
    endloop
  endfacet
  facet normal  0.000000e+00  9.659259e-01 -2.588184e-01
    outer loop
      vertex   6.600000e-02  1.060769e-03  3.369459e-02
      vertex  -6.600000e-02  1.060769e-03  3.369459e-02
      vertex  -6.600000e-02  1.241229e-03  3.436808e-02
    endloop
  endfacet
  facet normal  0.000000e+00  9.659259e-01 -2.588184e-01
    outer loop
      vertex   6.600000e-02  1.060769e-03  3.369459e-02
      vertex  -6.600000e-02  1.241229e-03  3.436808e-02
      vertex   6.600000e-02  1.241229e-03  3.436808e-02
    endloop
  endfacet
  facet normal  0.000000e+00  9.063081e-01 -4.226175e-01
    outer loop
      vertex   6.600000e-02  1.241229e-03  3.436808e-02
      vertex  -6.600000e-02  1.241229e-03  3.436808e-02
      vertex  -6.600000e-02  1.535898e-03  3.500000e-02
    endloop
  endfacet
  facet normal  0.000000e+00  9.063081e-01 -4.226175e-01
    outer loop
      vertex   6.600000e-02  1.241229e-03  3.436808e-02
      vertex  -6.600000e-02  1.535898e-03  3.500000e-02
      vertex   6.600000e-02  1.535898e-03  3.500000e-02
    endloop
  endfacet
  facet normal  0.000000e+00  8.191519e-01 -5.735767e-01
    outer loop
      vertex   6.600000e-02  1.535898e-03  3.500000e-02
      vertex  -6.600000e-02  1.535898e-03  3.500000e-02
      vertex  -6.600000e-02  1.935822e-03  3.557115e-02
    endloop
  endfacet
  facet normal  0.000000e+00  8.191519e-01 -5.735767e-01
    outer loop
      vertex   6.600000e-02  1.535898e-03  3.500000e-02
      vertex  -6.600000e-02  1.935822e-03  3.557115e-02
      vertex   6.600000e-02  1.935822e-03  3.557115e-02
    endloop
  endfacet
  facet normal  0.000000e+00  7.071096e-01 -7.071039e-01
    outer loop
      vertex   6.600000e-02  1.935822e-03  3.557115e-02
      vertex  -6.600000e-02  1.935822e-03  3.557115e-02
      vertex  -6.600000e-02  2.428849e-03  3.606418e-02
    endloop
  endfacet
  facet normal  0.000000e+00  7.071096e-01 -7.071039e-01
    outer loop
      vertex   6.600000e-02  1.935822e-03  3.557115e-02
      vertex  -6.600000e-02  2.428849e-03  3.606418e-02
      vertex   6.600000e-02  2.428849e-03  3.606418e-02
    endloop
  endfacet
  facet normal  0.000000e+00  5.735698e-01 -8.191567e-01
    outer loop
      vertex   6.600000e-02  2.428849e-03  3.606418e-02
      vertex  -6.600000e-02  2.428849e-03  3.606418e-02
      vertex  -6.600000e-02  3.000000e-03  3.646410e-02
    endloop
  endfacet
  facet normal  0.000000e+00  5.735698e-01 -8.191567e-01
    outer loop
      vertex   6.600000e-02  2.428849e-03  3.606418e-02
      vertex  -6.600000e-02  3.000000e-03  3.646410e-02
      vertex   6.600000e-02  3.000000e-03  3.646410e-02
    endloop
  endfacet
  facet normal  0.000000e+00  4.226204e-01 -9.063068e-01
    outer loop
      vertex   6.600000e-02  3.000000e-03  3.646410e-02
      vertex  -6.600000e-02  3.000000e-03  3.646410e-02
      vertex  -6.600000e-02  3.631919e-03  3.675877e-02
    endloop
  endfacet
  facet normal  0.000000e+00  4.226204e-01 -9.063068e-01
    outer loop
      vertex   6.600000e-02  3.000000e-03  3.646410e-02
      vertex  -6.600000e-02  3.631919e-03  3.675877e-02
      vertex   6.600000e-02  3.631919e-03  3.675877e-02
    endloop
  endfacet
  facet normal  0.000000e+00  2.588190e-01 -9.659259e-01
    outer loop
      vertex   6.600000e-02  3.631919e-03  3.675877e-02
      vertex  -6.600000e-02  3.631919e-03  3.675877e-02
      vertex  -6.600000e-02  4.305407e-03  3.693923e-02
    endloop
  endfacet
  facet normal  0.000000e+00  2.588190e-01 -9.659259e-01
    outer loop
      vertex   6.600000e-02  3.631919e-03  3.675877e-02
      vertex  -6.600000e-02  4.305407e-03  3.693923e-02
      vertex   6.600000e-02  4.305407e-03  3.693923e-02
    endloop
  endfacet
  facet normal  0.000000e+00  8.715808e-02 -9.961944e-01
    outer loop
      vertex   6.600000e-02  4.305407e-03  3.693923e-02
      vertex  -6.600000e-02  4.305407e-03  3.693923e-02
      vertex  -6.600000e-02  5.000000e-03  3.700000e-02
    endloop
  endfacet
  facet normal  0.000000e+00  8.715808e-02 -9.961944e-01
    outer loop
      vertex   6.600000e-02  4.305407e-03  3.693923e-02
      vertex  -6.600000e-02  5.000000e-03  3.700000e-02
      vertex   6.600000e-02  5.000000e-03  3.700000e-02
    endloop
  endfacet
  facet normal  0.000000e+00  0.000000e+00 -1.000000e+00
    outer loop
      vertex  -6.600000e-02  8.000000e-03  3.700000e-02
      vertex   6.600000e-02  8.000000e-03  3.700000e-02
      vertex  -6.600000e-02  5.000000e-03  3.700000e-02
    endloop
  endfacet
  facet normal  0.000000e+00  0.000000e+00 -1.000000e+00
    outer loop
      vertex  -6.600000e-02  5.000000e-03  3.700000e-02
      vertex   6.600000e-02  8.000000e-03  3.700000e-02
      vertex   6.600000e-02  5.000000e-03  3.700000e-02
    endloop
  endfacet
  facet normal -0.000000e+00  1.000000e+00  0.000000e+00
    outer loop
      vertex  -6.600000e-02  8.000000e-03  3.800000e-02
      vertex   6.600000e-02  8.000000e-03  3.800000e-02
      vertex  -6.600000e-02  8.000000e-03  3.700000e-02
    endloop
  endfacet
  facet normal  0.000000e+00  1.000000e+00  0.000000e+00
    outer loop
      vertex  -6.600000e-02  8.000000e-03  3.700000e-02
      vertex   6.600000e-02  8.000000e-03  3.800000e-02
      vertex   6.600000e-02  8.000000e-03  3.700000e-02
    endloop
  endfacet
  facet normal  0.000000e+00  0.000000e+00  1.000000e+00
    outer loop
      vertex  -6.600000e-02  5.000000e-03  3.800000e-02
      vertex   6.600000e-02  5.000000e-03  3.800000e-02
      vertex  -6.600000e-02  8.000000e-03  3.800000e-02
    endloop
  endfacet
  facet normal -0.000000e+00  0.000000e+00  1.000000e+00
    outer loop
      vertex  -6.600000e-02  8.000000e-03  3.800000e-02
      vertex   6.600000e-02  5.000000e-03  3.800000e-02
      vertex   6.600000e-02  8.000000e-03  3.800000e-02
    endloop
  endfacet
  facet normal  0.000000e+00 -8.715282e-02  9.961950e-01
    outer loop
      vertex   6.600000e-02  5.000000e-03  3.800000e-02
      vertex  -6.600000e-02  5.000000e-03  3.800000e-02
      vertex  -6.600000e-02  4.131759e-03  3.792404e-02
    endloop
  endfacet
  facet normal  0.000000e+00 -8.715282e-02  9.961950e-01
    outer loop
      vertex   6.600000e-02  5.000000e-03  3.800000e-02
      vertex  -6.600000e-02  4.131759e-03  3.792404e-02
      vertex   6.600000e-02  4.131759e-03  3.792404e-02
    endloop
  endfacet
  facet normal  0.000000e+00 -2.588250e-01  9.659243e-01
    outer loop
      vertex   6.600000e-02  4.131759e-03  3.792404e-02
      vertex  -6.600000e-02  4.131759e-03  3.792404e-02
      vertex  -6.600000e-02  3.289899e-03  3.769846e-02
    endloop
  endfacet
  facet normal  0.000000e+00 -2.588250e-01  9.659243e-01
    outer loop
      vertex   6.600000e-02  4.131759e-03  3.792404e-02
      vertex  -6.600000e-02  3.289899e-03  3.769846e-02
      vertex   6.600000e-02  3.289899e-03  3.769846e-02
    endloop
  endfacet
  facet normal  0.000000e+00 -4.226132e-01  9.063101e-01
    outer loop
      vertex   6.600000e-02  3.289899e-03  3.769846e-02
      vertex  -6.600000e-02  3.289899e-03  3.769846e-02
      vertex  -6.600000e-02  2.500000e-03  3.733013e-02
    endloop
  endfacet
  facet normal  0.000000e+00 -4.226132e-01  9.063101e-01
    outer loop
      vertex   6.600000e-02  3.289899e-03  3.769846e-02
      vertex  -6.600000e-02  2.500000e-03  3.733013e-02
      vertex   6.600000e-02  2.500000e-03  3.733013e-02
    endloop
  endfacet
  facet normal  0.000000e+00 -5.735789e-01  8.191503e-01
    outer loop
      vertex   6.600000e-02  2.500000e-03  3.733013e-02
      vertex  -6.600000e-02  2.500000e-03  3.733013e-02
      vertex  -6.600000e-02  1.786062e-03  3.683022e-02
    endloop
  endfacet
  facet normal  0.000000e+00 -5.735789e-01  8.191503e-01
    outer loop
      vertex   6.600000e-02  2.500000e-03  3.733013e-02
      vertex  -6.600000e-02  1.786062e-03  3.683022e-02
      vertex   6.600000e-02  1.786062e-03  3.683022e-02
    endloop
  endfacet
  facet normal  0.000000e+00 -7.071058e-01  7.071078e-01
    outer loop
      vertex   6.600000e-02  1.786062e-03  3.683022e-02
      vertex  -6.600000e-02  1.786062e-03  3.683022e-02
      vertex  -6.600000e-02  1.169778e-03  3.621394e-02
    endloop
  endfacet
  facet normal  0.000000e+00 -7.071058e-01  7.071078e-01
    outer loop
      vertex   6.600000e-02  1.786062e-03  3.683022e-02
      vertex  -6.600000e-02  1.169778e-03  3.621394e-02
      vertex   6.600000e-02  1.169778e-03  3.621394e-02
    endloop
  endfacet
  facet normal  0.000000e+00 -8.191515e-01  5.735772e-01
    outer loop
      vertex   6.600000e-02  1.169778e-03  3.621394e-02
      vertex  -6.600000e-02  1.169778e-03  3.621394e-02
      vertex  -6.600000e-02  6.698730e-04  3.550000e-02
    endloop
  endfacet
  facet normal  0.000000e+00 -8.191515e-01  5.735772e-01
    outer loop
      vertex   6.600000e-02  1.169778e-03  3.621394e-02
      vertex  -6.600000e-02  6.698730e-04  3.550000e-02
      vertex   6.600000e-02  6.698730e-04  3.550000e-02
    endloop
  endfacet
  facet normal  0.000000e+00 -9.063078e-01  4.226182e-01
    outer loop
      vertex   6.600000e-02  6.698730e-04  3.550000e-02
      vertex  -6.600000e-02  6.698730e-04  3.550000e-02
      vertex  -6.600000e-02  3.015369e-04  3.471010e-02
    endloop
  endfacet
  facet normal  0.000000e+00 -9.063078e-01  4.226182e-01
    outer loop
      vertex   6.600000e-02  6.698730e-04  3.550000e-02
      vertex  -6.600000e-02  3.015369e-04  3.471010e-02
      vertex   6.600000e-02  3.015369e-04  3.471010e-02
    endloop
  endfacet
  facet normal  0.000000e+00 -9.659261e-01  2.588180e-01
    outer loop
      vertex   6.600000e-02  3.015369e-04  3.471010e-02
      vertex  -6.600000e-02  3.015369e-04  3.471010e-02
      vertex  -6.600000e-02  7.596124e-05  3.386824e-02
    endloop
  endfacet
  facet normal  0.000000e+00 -9.659261e-01  2.588180e-01
    outer loop
      vertex   6.600000e-02  3.015369e-04  3.471010e-02
      vertex  -6.600000e-02  7.596124e-05  3.386824e-02
      vertex   6.600000e-02  7.596124e-05  3.386824e-02
    endloop
  endfacet
  facet normal  0.000000e+00 -9.961947e-01  8.715598e-02
    outer loop
      vertex   6.600000e-02  7.596124e-05  3.386824e-02
      vertex  -6.600000e-02  7.596124e-05  3.386824e-02
      vertex  -6.600000e-02  8.673617e-19  3.300000e-02
    endloop
  endfacet
  facet normal  0.000000e+00 -9.961947e-01  8.715598e-02
    outer loop
      vertex   6.600000e-02  7.596124e-05  3.386824e-02
      vertex  -6.600000e-02  8.673617e-19  3.300000e-02
      vertex   6.600000e-02  8.673617e-19  3.300000e-02
    endloop
  endfacet
  facet normal  0.000000e+00 -1.000000e+00  0.000000e+00
    outer loop
      vertex  -6.600000e-02  0.000000e+00 -3.300000e-02
      vertex   6.600000e-02  0.000000e+00 -3.300000e-02
      vertex  -6.600000e-02  0.000000e+00  3.300000e-02
    endloop
  endfacet
  facet normal  0.000000e+00 -1.000000e+00  0.000000e+00
    outer loop
      vertex  -6.600000e-02  0.000000e+00  3.300000e-02
      vertex   6.600000e-02  0.000000e+00 -3.300000e-02
      vertex   6.600000e-02  0.000000e+00  3.300000e-02
    endloop
  endfacet
  facet normal -0.000000e+00 -9.961947e-01 -8.715598e-02
    outer loop
      vertex   6.600000e-02  8.673617e-19 -3.300000e-02
      vertex  -6.600000e-02  8.673617e-19 -3.300000e-02
      vertex  -6.600000e-02  7.596124e-05 -3.386824e-02
    endloop
  endfacet
  facet normal  0.000000e+00 -9.961947e-01 -8.715598e-02
    outer loop
      vertex   6.600000e-02  8.673617e-19 -3.300000e-02
      vertex  -6.600000e-02  7.596124e-05 -3.386824e-02
      vertex   6.600000e-02  7.596124e-05 -3.386824e-02
    endloop
  endfacet
  facet normal -0.000000e+00 -9.659261e-01 -2.588180e-01
    outer loop
      vertex   6.600000e-02  7.596124e-05 -3.386824e-02
      vertex  -6.600000e-02  7.596124e-05 -3.386824e-02
      vertex  -6.600000e-02  3.015369e-04 -3.471010e-02
    endloop
  endfacet
  facet normal  0.000000e+00 -9.659261e-01 -2.588180e-01
    outer loop
      vertex   6.600000e-02  7.596124e-05 -3.386824e-02
      vertex  -6.600000e-02  3.015369e-04 -3.471010e-02
      vertex   6.600000e-02  3.015369e-04 -3.471010e-02
    endloop
  endfacet
  facet normal -0.000000e+00 -9.063078e-01 -4.226182e-01
    outer loop
      vertex   6.600000e-02  3.015369e-04 -3.471010e-02
      vertex  -6.600000e-02  3.015369e-04 -3.471010e-02
      vertex  -6.600000e-02  6.698730e-04 -3.550000e-02
    endloop
  endfacet
  facet normal  0.000000e+00 -9.063078e-01 -4.226182e-01
    outer loop
      vertex   6.600000e-02  3.015369e-04 -3.471010e-02
      vertex  -6.600000e-02  6.698730e-04 -3.550000e-02
      vertex   6.600000e-02  6.698730e-04 -3.550000e-02
    endloop
  endfacet
  facet normal -0.000000e+00 -8.191515e-01 -5.735772e-01
    outer loop
      vertex   6.600000e-02  6.698730e-04 -3.550000e-02
      vertex  -6.600000e-02  6.698730e-04 -3.550000e-02
      vertex  -6.600000e-02  1.169778e-03 -3.621394e-02
    endloop
  endfacet
  facet normal  0.000000e+00 -8.191515e-01 -5.735772e-01
    outer loop
      vertex   6.600000e-02  6.698730e-04 -3.550000e-02
      vertex  -6.600000e-02  1.169778e-03 -3.621394e-02
      vertex   6.600000e-02  1.169778e-03 -3.621394e-02
    endloop
  endfacet
  facet normal -0.000000e+00 -7.071058e-01 -7.071078e-01
    outer loop
      vertex   6.600000e-02  1.169778e-03 -3.621394e-02
      vertex  -6.600000e-02  1.169778e-03 -3.621394e-02
      vertex  -6.600000e-02  1.786062e-03 -3.683022e-02
    endloop
  endfacet
  facet normal  0.000000e+00 -7.071058e-01 -7.071078e-01
    outer loop
      vertex   6.600000e-02  1.169778e-03 -3.621394e-02
      vertex  -6.600000e-02  1.786062e-03 -3.683022e-02
      vertex   6.600000e-02  1.786062e-03 -3.683022e-02
    endloop
  endfacet
  facet normal -0.000000e+00 -5.735789e-01 -8.191503e-01
    outer loop
      vertex   6.600000e-02  1.786062e-03 -3.683022e-02
      vertex  -6.600000e-02  1.786062e-03 -3.683022e-02
      vertex  -6.600000e-02  2.500000e-03 -3.733013e-02
    endloop
  endfacet
  facet normal  0.000000e+00 -5.735789e-01 -8.191503e-01
    outer loop
      vertex   6.600000e-02  1.786062e-03 -3.683022e-02
      vertex  -6.600000e-02  2.500000e-03 -3.733013e-02
      vertex   6.600000e-02  2.500000e-03 -3.733013e-02
    endloop
  endfacet
  facet normal -0.000000e+00 -4.226132e-01 -9.063101e-01
    outer loop
      vertex   6.600000e-02  2.500000e-03 -3.733013e-02
      vertex  -6.600000e-02  2.500000e-03 -3.733013e-02
      vertex  -6.600000e-02  3.289899e-03 -3.769846e-02
    endloop
  endfacet
  facet normal  0.000000e+00 -4.226132e-01 -9.063101e-01
    outer loop
      vertex   6.600000e-02  2.500000e-03 -3.733013e-02
      vertex  -6.600000e-02  3.289899e-03 -3.769846e-02
      vertex   6.600000e-02  3.289899e-03 -3.769846e-02
    endloop
  endfacet
  facet normal -0.000000e+00 -2.588250e-01 -9.659243e-01
    outer loop
      vertex   6.600000e-02  3.289899e-03 -3.769846e-02
      vertex  -6.600000e-02  3.289899e-03 -3.769846e-02
      vertex  -6.600000e-02  4.131759e-03 -3.792404e-02
    endloop
  endfacet
  facet normal  0.000000e+00 -2.588250e-01 -9.659243e-01
    outer loop
      vertex   6.600000e-02  3.289899e-03 -3.769846e-02
      vertex  -6.600000e-02  4.131759e-03 -3.792404e-02
      vertex   6.600000e-02  4.131759e-03 -3.792404e-02
    endloop
  endfacet
  facet normal -0.000000e+00 -8.715282e-02 -9.961950e-01
    outer loop
      vertex   6.600000e-02  4.131759e-03 -3.792404e-02
      vertex  -6.600000e-02  4.131759e-03 -3.792404e-02
      vertex  -6.600000e-02  5.000000e-03 -3.800000e-02
    endloop
  endfacet
  facet normal  0.000000e+00 -8.715282e-02 -9.961950e-01
    outer loop
      vertex   6.600000e-02  4.131759e-03 -3.792404e-02
      vertex  -6.600000e-02  5.000000e-03 -3.800000e-02
      vertex   6.600000e-02  5.000000e-03 -3.800000e-02
    endloop
  endfacet
  facet normal  1.000000e+00  0.000000e+00 -0.000000e+00
    outer loop
      vertex   6.600000e-02  8.000000e-03  3.700000e-02
      vertex   6.600000e-02  8.000000e-03  3.800000e-02
      vertex   6.600000e-02  5.000000e-03  3.700000e-02
    endloop
  endfacet
  facet normal  1.000000e+00  0.000000e+00  0.000000e+00
    outer loop
      vertex   6.600000e-02  5.000000e-03  3.700000e-02
      vertex   6.600000e-02  8.000000e-03  3.800000e-02
      vertex   6.600000e-02  5.000000e-03  3.800000e-02
    endloop
  endfacet
  facet normal  1.000000e+00  0.000000e+00 -0.000000e+00
    outer loop
      vertex   6.600000e-02  5.000000e-03  3.700000e-02
      vertex   6.600000e-02  5.000000e-03  3.800000e-02
      vertex   6.600000e-02  4.305407e-03  3.693923e-02
    endloop
  endfacet
  facet normal  1.000000e+00  0.000000e+00 -0.000000e+00
    outer loop
      vertex   6.600000e-02  4.305407e-03  3.693923e-02
      vertex   6.600000e-02  5.000000e-03  3.800000e-02
      vertex   6.600000e-02  4.131759e-03  3.792404e-02
    endloop
  endfacet
  facet normal  1.000000e+00  0.000000e+00  0.000000e+00
    outer loop
      vertex   6.600000e-02  4.305407e-03  3.693923e-02
      vertex   6.600000e-02  4.131759e-03  3.792404e-02
      vertex   6.600000e-02  3.631919e-03  3.675877e-02
    endloop
  endfacet
  facet normal  1.000000e+00  0.000000e+00 -0.000000e+00
    outer loop
      vertex   6.600000e-02  3.631919e-03  3.675877e-02
      vertex   6.600000e-02  4.131759e-03  3.792404e-02
      vertex   6.600000e-02  3.289899e-03  3.769846e-02
    endloop
  endfacet
  facet normal  1.000000e+00  0.000000e+00  0.000000e+00
    outer loop
      vertex   6.600000e-02  3.631919e-03  3.675877e-02
      vertex   6.600000e-02  3.289899e-03  3.769846e-02
      vertex   6.600000e-02  3.000000e-03  3.646410e-02
    endloop
  endfacet
  facet normal  1.000000e+00  0.000000e+00 -0.000000e+00
    outer loop
      vertex   6.600000e-02  3.000000e-03  3.646410e-02
      vertex   6.600000e-02  3.289899e-03  3.769846e-02
      vertex   6.600000e-02  2.500000e-03  3.733013e-02
    endloop
  endfacet
  facet normal  1.000000e+00  0.000000e+00  0.000000e+00
    outer loop
      vertex   6.600000e-02  3.000000e-03  3.646410e-02
      vertex   6.600000e-02  2.500000e-03  3.733013e-02
      vertex   6.600000e-02  2.428849e-03  3.606418e-02
    endloop
  endfacet
  facet normal  1.000000e+00  0.000000e+00 -0.000000e+00
    outer loop
      vertex   6.600000e-02  2.428849e-03  3.606418e-02
      vertex   6.600000e-02  2.500000e-03  3.733013e-02
      vertex   6.600000e-02  1.786062e-03  3.683022e-02
    endloop
  endfacet
  facet normal  1.000000e+00  0.000000e+00  0.000000e+00
    outer loop
      vertex   6.600000e-02  2.428849e-03  3.606418e-02
      vertex   6.600000e-02  1.786062e-03  3.683022e-02
      vertex   6.600000e-02  1.935822e-03  3.557115e-02
    endloop
  endfacet
  facet normal  1.000000e+00  0.000000e+00  0.000000e+00
    outer loop
      vertex   6.600000e-02  1.935822e-03  3.557115e-02
      vertex   6.600000e-02  1.786062e-03  3.683022e-02
      vertex   6.600000e-02  1.169778e-03  3.621394e-02
    endloop
  endfacet
  facet normal  1.000000e+00  0.000000e+00  0.000000e+00
    outer loop
      vertex   6.600000e-02  1.935822e-03  3.557115e-02
      vertex   6.600000e-02  1.169778e-03  3.621394e-02
      vertex   6.600000e-02  1.535898e-03  3.500000e-02
    endloop
  endfacet
  facet normal  1.000000e+00  0.000000e+00  0.000000e+00
    outer loop
      vertex   6.600000e-02  1.535898e-03  3.500000e-02
      vertex   6.600000e-02  1.169778e-03  3.621394e-02
      vertex   6.600000e-02  6.698730e-04  3.550000e-02
    endloop
  endfacet
  facet normal  1.000000e+00  0.000000e+00  0.000000e+00
    outer loop
      vertex   6.600000e-02  1.535898e-03  3.500000e-02
      vertex   6.600000e-02  6.698730e-04  3.550000e-02
      vertex   6.600000e-02  1.241229e-03  3.436808e-02
    endloop
  endfacet
  facet normal  1.000000e+00  0.000000e+00  0.000000e+00
    outer loop
      vertex   6.600000e-02  1.241229e-03  3.436808e-02
      vertex   6.600000e-02  6.698730e-04  3.550000e-02
      vertex   6.600000e-02  3.015369e-04  3.471010e-02
    endloop
  endfacet
  facet normal  1.000000e+00  0.000000e+00  0.000000e+00
    outer loop
      vertex   6.600000e-02  1.241229e-03  3.436808e-02
      vertex   6.600000e-02  3.015369e-04  3.471010e-02
      vertex   6.600000e-02  1.060769e-03  3.369459e-02
    endloop
  endfacet
  facet normal  1.000000e+00  0.000000e+00  0.000000e+00
    outer loop
      vertex   6.600000e-02  1.060769e-03  3.369459e-02
      vertex   6.600000e-02  3.015369e-04  3.471010e-02
      vertex   6.600000e-02  7.596124e-05  3.386824e-02
    endloop
  endfacet
  facet normal  1.000000e+00  0.000000e+00  0.000000e+00
    outer loop
      vertex   6.600000e-02  1.060769e-03  3.369459e-02
      vertex   6.600000e-02  7.596124e-05  3.386824e-02
      vertex   6.600000e-02  1.000000e-03  3.300000e-02
    endloop
  endfacet
  facet normal  1.000000e+00  0.000000e+00  0.000000e+00
    outer loop
      vertex   6.600000e-02  1.000000e-03  3.300000e-02
      vertex   6.600000e-02  7.596124e-05  3.386824e-02
      vertex   6.600000e-02  0.000000e+00  3.300000e-02
    endloop
  endfacet
  facet normal  1.000000e+00  0.000000e+00  0.000000e+00
    outer loop
      vertex   6.600000e-02  1.000000e-03  3.300000e-02
      vertex   6.600000e-02  0.000000e+00  3.300000e-02
      vertex   6.600000e-02  1.000000e-03 -3.300000e-02
    endloop
  endfacet
  facet normal  1.000000e+00  0.000000e+00  0.000000e+00
    outer loop
      vertex   6.600000e-02  1.000000e-03 -3.300000e-02
      vertex   6.600000e-02  0.000000e+00  3.300000e-02
      vertex   6.600000e-02  8.673617e-19 -3.300000e-02
    endloop
  endfacet
  facet normal  1.000000e+00  0.000000e+00  0.000000e+00
    outer loop
      vertex   6.600000e-02  1.000000e-03 -3.300000e-02
      vertex   6.600000e-02  8.673617e-19 -3.300000e-02
      vertex   6.600000e-02  1.060769e-03 -3.369459e-02
    endloop
  endfacet
  facet normal  1.000000e+00  0.000000e+00  0.000000e+00
    outer loop
      vertex   6.600000e-02  1.060769e-03 -3.369459e-02
      vertex   6.600000e-02  8.673617e-19 -3.300000e-02
      vertex   6.600000e-02  7.596124e-05 -3.386824e-02
    endloop
  endfacet
  facet normal  1.000000e+00  0.000000e+00  0.000000e+00
    outer loop
      vertex   6.600000e-02  1.060769e-03 -3.369459e-02
      vertex   6.600000e-02  7.596124e-05 -3.386824e-02
      vertex   6.600000e-02  1.241229e-03 -3.436808e-02
    endloop
  endfacet
  facet normal  1.000000e+00  0.000000e+00  0.000000e+00
    outer loop
      vertex   6.600000e-02  1.241229e-03 -3.436808e-02
      vertex   6.600000e-02  7.596124e-05 -3.386824e-02
      vertex   6.600000e-02  3.015369e-04 -3.471010e-02
    endloop
  endfacet
  facet normal  1.000000e+00  0.000000e+00  0.000000e+00
    outer loop
      vertex   6.600000e-02  1.241229e-03 -3.436808e-02
      vertex   6.600000e-02  3.015369e-04 -3.471010e-02
      vertex   6.600000e-02  1.535898e-03 -3.500000e-02
    endloop
  endfacet
  facet normal  1.000000e+00  0.000000e+00  0.000000e+00
    outer loop
      vertex   6.600000e-02  1.535898e-03 -3.500000e-02
      vertex   6.600000e-02  3.015369e-04 -3.471010e-02
      vertex   6.600000e-02  6.698730e-04 -3.550000e-02
    endloop
  endfacet
  facet normal  1.000000e+00  0.000000e+00  0.000000e+00
    outer loop
      vertex   6.600000e-02  1.535898e-03 -3.500000e-02
      vertex   6.600000e-02  6.698730e-04 -3.550000e-02
      vertex   6.600000e-02  1.935822e-03 -3.557115e-02
    endloop
  endfacet
  facet normal  1.000000e+00  0.000000e+00  0.000000e+00
    outer loop
      vertex   6.600000e-02  1.935822e-03 -3.557115e-02
      vertex   6.600000e-02  6.698730e-04 -3.550000e-02
      vertex   6.600000e-02  1.169778e-03 -3.621394e-02
    endloop
  endfacet
  facet normal  1.000000e+00  0.000000e+00  0.000000e+00
    outer loop
      vertex   6.600000e-02  1.935822e-03 -3.557115e-02
      vertex   6.600000e-02  1.169778e-03 -3.621394e-02
      vertex   6.600000e-02  2.428849e-03 -3.606418e-02
    endloop
  endfacet
  facet normal  1.000000e+00  0.000000e+00  0.000000e+00
    outer loop
      vertex   6.600000e-02  2.428849e-03 -3.606418e-02
      vertex   6.600000e-02  1.169778e-03 -3.621394e-02
      vertex   6.600000e-02  1.786062e-03 -3.683022e-02
    endloop
  endfacet
  facet normal  1.000000e+00  0.000000e+00  0.000000e+00
    outer loop
      vertex   6.600000e-02  2.428849e-03 -3.606418e-02
      vertex   6.600000e-02  1.786062e-03 -3.683022e-02
      vertex   6.600000e-02  3.000000e-03 -3.646410e-02
    endloop
  endfacet
  facet normal  1.000000e+00  0.000000e+00  0.000000e+00
    outer loop
      vertex   6.600000e-02  3.000000e-03 -3.646410e-02
      vertex   6.600000e-02  1.786062e-03 -3.683022e-02
      vertex   6.600000e-02  2.500000e-03 -3.733013e-02
    endloop
  endfacet
  facet normal  1.000000e+00  0.000000e+00  0.000000e+00
    outer loop
      vertex   6.600000e-02  3.000000e-03 -3.646410e-02
      vertex   6.600000e-02  2.500000e-03 -3.733013e-02
      vertex   6.600000e-02  3.631919e-03 -3.675877e-02
    endloop
  endfacet
  facet normal  1.000000e+00  0.000000e+00  0.000000e+00
    outer loop
      vertex   6.600000e-02  3.631919e-03 -3.675877e-02
      vertex   6.600000e-02  2.500000e-03 -3.733013e-02
      vertex   6.600000e-02  3.289899e-03 -3.769846e-02
    endloop
  endfacet
  facet normal  1.000000e+00  0.000000e+00  0.000000e+00
    outer loop
      vertex   6.600000e-02  3.631919e-03 -3.675877e-02
      vertex   6.600000e-02  3.289899e-03 -3.769846e-02
      vertex   6.600000e-02  4.305407e-03 -3.693923e-02
    endloop
  endfacet
  facet normal  1.000000e+00  0.000000e+00  0.000000e+00
    outer loop
      vertex   6.600000e-02  4.305407e-03 -3.693923e-02
      vertex   6.600000e-02  3.289899e-03 -3.769846e-02
      vertex   6.600000e-02  4.131759e-03 -3.792404e-02
    endloop
  endfacet
  facet normal  1.000000e+00  0.000000e+00  0.000000e+00
    outer loop
      vertex   6.600000e-02  4.305407e-03 -3.693923e-02
      vertex   6.600000e-02  4.131759e-03 -3.792404e-02
      vertex   6.600000e-02  5.000000e-03 -3.700000e-02
    endloop
  endfacet
  facet normal  1.000000e+00  0.000000e+00  0.000000e+00
    outer loop
      vertex   6.600000e-02  5.000000e-03 -3.700000e-02
      vertex   6.600000e-02  4.131759e-03 -3.792404e-02
      vertex   6.600000e-02  5.000000e-03 -3.800000e-02
    endloop
  endfacet
  facet normal  1.000000e+00 -0.000000e+00  0.000000e+00
    outer loop
      vertex   6.600000e-02  5.000000e-03 -3.700000e-02
      vertex   6.600000e-02  5.000000e-03 -3.800000e-02
      vertex   6.600000e-02  8.000000e-03 -3.700000e-02
    endloop
  endfacet
  facet normal  1.000000e+00  0.000000e+00  0.000000e+00
    outer loop
      vertex   6.600000e-02  8.000000e-03 -3.700000e-02
      vertex   6.600000e-02  5.000000e-03 -3.800000e-02
      vertex   6.600000e-02  8.000000e-03 -3.800000e-02
    endloop
  endfacet
  facet normal -1.000000e+00 -0.000000e+00 -0.000000e+00
    outer loop
      vertex  -6.600000e-02  8.000000e-03 -3.700000e-02
      vertex  -6.600000e-02  8.000000e-03 -3.800000e-02
      vertex  -6.600000e-02  5.000000e-03 -3.700000e-02
    endloop
  endfacet
  facet normal -1.000000e+00  0.000000e+00  0.000000e+00
    outer loop
      vertex  -6.600000e-02  5.000000e-03 -3.700000e-02
      vertex  -6.600000e-02  8.000000e-03 -3.800000e-02
      vertex  -6.600000e-02  5.000000e-03 -3.800000e-02
    endloop
  endfacet
  facet normal -1.000000e+00 -0.000000e+00 -0.000000e+00
    outer loop
      vertex  -6.600000e-02  5.000000e-03 -3.700000e-02
      vertex  -6.600000e-02  5.000000e-03 -3.800000e-02
      vertex  -6.600000e-02  4.305407e-03 -3.693923e-02
    endloop
  endfacet
  facet normal -1.000000e+00  0.000000e+00 -0.000000e+00
    outer loop
      vertex  -6.600000e-02  4.305407e-03 -3.693923e-02
      vertex  -6.600000e-02  5.000000e-03 -3.800000e-02
      vertex  -6.600000e-02  4.131759e-03 -3.792404e-02
    endloop
  endfacet
  facet normal -1.000000e+00 -0.000000e+00  0.000000e+00
    outer loop
      vertex  -6.600000e-02  4.305407e-03 -3.693923e-02
      vertex  -6.600000e-02  4.131759e-03 -3.792404e-02
      vertex  -6.600000e-02  3.631919e-03 -3.675877e-02
    endloop
  endfacet
  facet normal -1.000000e+00  0.000000e+00 -0.000000e+00
    outer loop
      vertex  -6.600000e-02  3.631919e-03 -3.675877e-02
      vertex  -6.600000e-02  4.131759e-03 -3.792404e-02
      vertex  -6.600000e-02  3.289899e-03 -3.769846e-02
    endloop
  endfacet
  facet normal -1.000000e+00 -0.000000e+00  0.000000e+00
    outer loop
      vertex  -6.600000e-02  3.631919e-03 -3.675877e-02
      vertex  -6.600000e-02  3.289899e-03 -3.769846e-02
      vertex  -6.600000e-02  3.000000e-03 -3.646410e-02
    endloop
  endfacet
  facet normal -1.000000e+00  0.000000e+00 -0.000000e+00
    outer loop
      vertex  -6.600000e-02  3.000000e-03 -3.646410e-02
      vertex  -6.600000e-02  3.289899e-03 -3.769846e-02
      vertex  -6.600000e-02  2.500000e-03 -3.733013e-02
    endloop
  endfacet
  facet normal -1.000000e+00 -0.000000e+00  0.000000e+00
    outer loop
      vertex  -6.600000e-02  3.000000e-03 -3.646410e-02
      vertex  -6.600000e-02  2.500000e-03 -3.733013e-02
      vertex  -6.600000e-02  2.428849e-03 -3.606418e-02
    endloop
  endfacet
  facet normal -1.000000e+00  0.000000e+00 -0.000000e+00
    outer loop
      vertex  -6.600000e-02  2.428849e-03 -3.606418e-02
      vertex  -6.600000e-02  2.500000e-03 -3.733013e-02
      vertex  -6.600000e-02  1.786062e-03 -3.683022e-02
    endloop
  endfacet
  facet normal -1.000000e+00 -0.000000e+00  0.000000e+00
    outer loop
      vertex  -6.600000e-02  2.428849e-03 -3.606418e-02
      vertex  -6.600000e-02  1.786062e-03 -3.683022e-02
      vertex  -6.600000e-02  1.935822e-03 -3.557115e-02
    endloop
  endfacet
  facet normal -1.000000e+00  0.000000e+00  0.000000e+00
    outer loop
      vertex  -6.600000e-02  1.935822e-03 -3.557115e-02
      vertex  -6.600000e-02  1.786062e-03 -3.683022e-02
      vertex  -6.600000e-02  1.169778e-03 -3.621394e-02
    endloop
  endfacet
  facet normal -1.000000e+00 -0.000000e+00  0.000000e+00
    outer loop
      vertex  -6.600000e-02  1.935822e-03 -3.557115e-02
      vertex  -6.600000e-02  1.169778e-03 -3.621394e-02
      vertex  -6.600000e-02  1.535898e-03 -3.500000e-02
    endloop
  endfacet
  facet normal -1.000000e+00  0.000000e+00  0.000000e+00
    outer loop
      vertex  -6.600000e-02  1.535898e-03 -3.500000e-02
      vertex  -6.600000e-02  1.169778e-03 -3.621394e-02
      vertex  -6.600000e-02  6.698730e-04 -3.550000e-02
    endloop
  endfacet
  facet normal -1.000000e+00 -0.000000e+00  0.000000e+00
    outer loop
      vertex  -6.600000e-02  1.535898e-03 -3.500000e-02
      vertex  -6.600000e-02  6.698730e-04 -3.550000e-02
      vertex  -6.600000e-02  1.241229e-03 -3.436808e-02
    endloop
  endfacet
  facet normal -1.000000e+00  0.000000e+00  0.000000e+00
    outer loop
      vertex  -6.600000e-02  1.241229e-03 -3.436808e-02
      vertex  -6.600000e-02  6.698730e-04 -3.550000e-02
      vertex  -6.600000e-02  3.015369e-04 -3.471010e-02
    endloop
  endfacet
  facet normal -1.000000e+00 -0.000000e+00  0.000000e+00
    outer loop
      vertex  -6.600000e-02  1.241229e-03 -3.436808e-02
      vertex  -6.600000e-02  3.015369e-04 -3.471010e-02
      vertex  -6.600000e-02  1.060769e-03 -3.369459e-02
    endloop
  endfacet
  facet normal -1.000000e+00  0.000000e+00  0.000000e+00
    outer loop
      vertex  -6.600000e-02  1.060769e-03 -3.369459e-02
      vertex  -6.600000e-02  3.015369e-04 -3.471010e-02
      vertex  -6.600000e-02  7.596124e-05 -3.386824e-02
    endloop
  endfacet
  facet normal -1.000000e+00 -0.000000e+00  0.000000e+00
    outer loop
      vertex  -6.600000e-02  1.060769e-03 -3.369459e-02
      vertex  -6.600000e-02  7.596124e-05 -3.386824e-02
      vertex  -6.600000e-02  1.000000e-03 -3.300000e-02
    endloop
  endfacet
  facet normal -1.000000e+00 -0.000000e+00  0.000000e+00
    outer loop
      vertex  -6.600000e-02  1.000000e-03 -3.300000e-02
      vertex  -6.600000e-02  7.596124e-05 -3.386824e-02
      vertex  -6.600000e-02  8.673617e-19 -3.300000e-02
    endloop
  endfacet
  facet normal -1.000000e+00  0.000000e+00  0.000000e+00
    outer loop
      vertex  -6.600000e-02  1.000000e-03 -3.300000e-02
      vertex  -6.600000e-02  8.673617e-19 -3.300000e-02
      vertex  -6.600000e-02  1.000000e-03  3.300000e-02
    endloop
  endfacet
  facet normal -1.000000e+00 -0.000000e+00  0.000000e+00
    outer loop
      vertex  -6.600000e-02  1.000000e-03  3.300000e-02
      vertex  -6.600000e-02  8.673617e-19 -3.300000e-02
      vertex  -6.600000e-02  8.673617e-19  3.300000e-02
    endloop
  endfacet
  facet normal -1.000000e+00  0.000000e+00  0.000000e+00
    outer loop
      vertex  -6.600000e-02  1.000000e-03  3.300000e-02
      vertex  -6.600000e-02  8.673617e-19  3.300000e-02
      vertex  -6.600000e-02  1.060769e-03  3.369459e-02
    endloop
  endfacet
  facet normal -1.000000e+00 -0.000000e+00  0.000000e+00
    outer loop
      vertex  -6.600000e-02  1.060769e-03  3.369459e-02
      vertex  -6.600000e-02  8.673617e-19  3.300000e-02
      vertex  -6.600000e-02  7.596124e-05  3.386824e-02
    endloop
  endfacet
  facet normal -1.000000e+00  0.000000e+00  0.000000e+00
    outer loop
      vertex  -6.600000e-02  1.060769e-03  3.369459e-02
      vertex  -6.600000e-02  7.596124e-05  3.386824e-02
      vertex  -6.600000e-02  1.241229e-03  3.436808e-02
    endloop
  endfacet
  facet normal -1.000000e+00 -0.000000e+00  0.000000e+00
    outer loop
      vertex  -6.600000e-02  1.241229e-03  3.436808e-02
      vertex  -6.600000e-02  7.596124e-05  3.386824e-02
      vertex  -6.600000e-02  3.015369e-04  3.471010e-02
    endloop
  endfacet
  facet normal -1.000000e+00  0.000000e+00  0.000000e+00
    outer loop
      vertex  -6.600000e-02  1.241229e-03  3.436808e-02
      vertex  -6.600000e-02  3.015369e-04  3.471010e-02
      vertex  -6.600000e-02  1.535898e-03  3.500000e-02
    endloop
  endfacet
  facet normal -1.000000e+00 -0.000000e+00  0.000000e+00
    outer loop
      vertex  -6.600000e-02  1.535898e-03  3.500000e-02
      vertex  -6.600000e-02  3.015369e-04  3.471010e-02
      vertex  -6.600000e-02  6.698730e-04  3.550000e-02
    endloop
  endfacet
  facet normal -1.000000e+00  0.000000e+00  0.000000e+00
    outer loop
      vertex  -6.600000e-02  1.535898e-03  3.500000e-02
      vertex  -6.600000e-02  6.698730e-04  3.550000e-02
      vertex  -6.600000e-02  1.935822e-03  3.557115e-02
    endloop
  endfacet
  facet normal -1.000000e+00 -0.000000e+00  0.000000e+00
    outer loop
      vertex  -6.600000e-02  1.935822e-03  3.557115e-02
      vertex  -6.600000e-02  6.698730e-04  3.550000e-02
      vertex  -6.600000e-02  1.169778e-03  3.621394e-02
    endloop
  endfacet
  facet normal -1.000000e+00  0.000000e+00  0.000000e+00
    outer loop
      vertex  -6.600000e-02  1.935822e-03  3.557115e-02
      vertex  -6.600000e-02  1.169778e-03  3.621394e-02
      vertex  -6.600000e-02  2.428849e-03  3.606418e-02
    endloop
  endfacet
  facet normal -1.000000e+00  0.000000e+00  0.000000e+00
    outer loop
      vertex  -6.600000e-02  2.428849e-03  3.606418e-02
      vertex  -6.600000e-02  1.169778e-03  3.621394e-02
      vertex  -6.600000e-02  1.786062e-03  3.683022e-02
    endloop
  endfacet
  facet normal -1.000000e+00  0.000000e+00  0.000000e+00
    outer loop
      vertex  -6.600000e-02  2.428849e-03  3.606418e-02
      vertex  -6.600000e-02  1.786062e-03  3.683022e-02
      vertex  -6.600000e-02  3.000000e-03  3.646410e-02
    endloop
  endfacet
  facet normal -1.000000e+00  0.000000e+00  0.000000e+00
    outer loop
      vertex  -6.600000e-02  3.000000e-03  3.646410e-02
      vertex  -6.600000e-02  1.786062e-03  3.683022e-02
      vertex  -6.600000e-02  2.500000e-03  3.733013e-02
    endloop
  endfacet
  facet normal -1.000000e+00  0.000000e+00  0.000000e+00
    outer loop
      vertex  -6.600000e-02  3.000000e-03  3.646410e-02
      vertex  -6.600000e-02  2.500000e-03  3.733013e-02
      vertex  -6.600000e-02  3.631919e-03  3.675877e-02
    endloop
  endfacet
  facet normal -1.000000e+00  0.000000e+00  0.000000e+00
    outer loop
      vertex  -6.600000e-02  3.631919e-03  3.675877e-02
      vertex  -6.600000e-02  2.500000e-03  3.733013e-02
      vertex  -6.600000e-02  3.289899e-03  3.769846e-02
    endloop
  endfacet
  facet normal -1.000000e+00  0.000000e+00  0.000000e+00
    outer loop
      vertex  -6.600000e-02  3.631919e-03  3.675877e-02
      vertex  -6.600000e-02  3.289899e-03  3.769846e-02
      vertex  -6.600000e-02  4.305407e-03  3.693923e-02
    endloop
  endfacet
  facet normal -1.000000e+00  0.000000e+00  0.000000e+00
    outer loop
      vertex  -6.600000e-02  4.305407e-03  3.693923e-02
      vertex  -6.600000e-02  3.289899e-03  3.769846e-02
      vertex  -6.600000e-02  4.131759e-03  3.792404e-02
    endloop
  endfacet
  facet normal -1.000000e+00  0.000000e+00  0.000000e+00
    outer loop
      vertex  -6.600000e-02  4.305407e-03  3.693923e-02
      vertex  -6.600000e-02  4.131759e-03  3.792404e-02
      vertex  -6.600000e-02  5.000000e-03  3.700000e-02
    endloop
  endfacet
  facet normal -1.000000e+00  0.000000e+00  0.000000e+00
    outer loop
      vertex  -6.600000e-02  5.000000e-03  3.700000e-02
      vertex  -6.600000e-02  4.131759e-03  3.792404e-02
      vertex  -6.600000e-02  5.000000e-03  3.800000e-02
    endloop
  endfacet
  facet normal -1.000000e+00  0.000000e+00  0.000000e+00
    outer loop
      vertex  -6.600000e-02  5.000000e-03  3.700000e-02
      vertex  -6.600000e-02  5.000000e-03  3.800000e-02
      vertex  -6.600000e-02  8.000000e-03  3.700000e-02
    endloop
  endfacet
  facet normal -1.000000e+00  0.000000e+00  0.000000e+00
    outer loop
      vertex  -6.600000e-02  8.000000e-03  3.700000e-02
      vertex  -6.600000e-02  5.000000e-03  3.800000e-02
      vertex  -6.600000e-02  8.000000e-03  3.800000e-02
    endloop
  endfacet
endsolid vcg
